<svg width="259" height="36" viewBox="0 0 259 36" fill="none" xmlns="http://www.w3.org/2000/svg">
<path d="M8.05004 0C9.06993 0 9.73367 0.252374 10.2679 0.765265C12.1782 2.58073 14.0885 4.40434 15.9744 6.24423C17.1158 7.35142 17.1238 9.0692 16.023 10.2252C14.218 12.1058 12.3967 13.9783 10.5674 15.8426C9.42608 16.9986 7.70198 17.0231 6.52829 15.9077C4.65039 14.1167 2.77249 12.3175 0.910785 10.5102C-0.287185 9.35414 -0.303373 7.64451 0.862219 6.43962C2.64298 4.59159 4.43994 2.7517 6.2288 0.911805C6.8035 0.317503 7.49962 0.00814111 8.05004 0ZM6.82778 11.9837C7.04633 11.9674 7.21631 11.8616 7.36201 11.7151C7.64532 11.4301 7.9529 11.1533 8.22002 10.8521C8.3981 10.6567 8.50332 10.6893 8.66521 10.8602C8.94042 11.1615 9.23182 11.4383 9.52322 11.7232C9.87937 12.0651 10.195 12.0651 10.5431 11.7232C10.9721 11.308 11.393 10.8928 11.8058 10.4613C12.1539 10.1113 12.1539 9.78562 11.8139 9.43555C11.5306 9.14247 11.2554 8.84939 10.9478 8.58073C10.7374 8.39349 10.7778 8.27951 10.964 8.11669C11.2635 7.84803 11.5468 7.55495 11.8301 7.26187C12.1539 6.91995 12.1539 6.60244 11.8301 6.26866C11.4092 5.82904 10.9721 5.4057 10.535 4.98236C10.187 4.64858 9.89556 4.64858 9.5394 4.98236C9.23991 5.25916 8.94851 5.53596 8.6814 5.84532C8.48713 6.06513 8.35762 6.04071 8.17145 5.83718C7.90434 5.53596 7.60485 5.25916 7.31345 4.98236C6.98158 4.66486 6.68209 4.66486 6.35831 4.97422C5.90502 5.4057 5.46793 5.84532 5.03083 6.28494C4.73134 6.5943 4.73134 6.94437 5.02274 7.25373C5.31413 7.55495 5.60553 7.86432 5.91312 8.13297C6.12357 8.32022 6.09119 8.43419 5.90502 8.59702C5.60553 8.86567 5.32223 9.15875 5.03892 9.45183C4.72324 9.77748 4.72324 10.1275 5.03892 10.4532C5.45983 10.8847 5.90502 11.308 6.33403 11.7395C6.47972 11.886 6.64161 11.9674 6.82778 11.9837Z" fill="#09BF37"/>
<path d="M26.4727 21.9568C25.3395 21.9568 24.2063 21.9405 23.073 21.9649C22.6683 21.9731 22.4336 21.8265 22.2312 21.4765C21.527 20.2309 20.7904 19.0016 20.0781 17.7478C19.9405 17.5036 19.8515 17.4792 19.6491 17.6908C19.0582 18.3014 18.4511 18.9039 17.836 19.49C17.6255 19.6936 17.6012 19.7994 17.8279 20.0192C19.0258 21.1915 20.2076 22.3801 21.4056 23.5524C21.6403 23.7804 21.7375 24.0165 21.7375 24.3421C21.7294 26.7845 21.7375 29.2268 21.7294 31.6691C21.7294 32.2716 21.5837 32.4181 20.9928 32.4181C20.0781 32.4181 19.1554 32.4181 18.2407 32.4181C17.6174 32.4181 17.4717 32.2716 17.4717 31.661C17.4717 29.6664 17.4636 27.6718 17.4798 25.6773C17.4798 25.4086 17.4151 25.2377 17.1965 25.0667C14.8006 23.2187 12.4208 21.3543 10.033 19.4982C9.49066 19.0748 9.48257 18.855 9.97632 18.3584C11.9837 16.372 13.8535 14.2471 15.7881 12.1874C16.3628 11.5769 16.9537 10.9744 17.6822 10.5511C18.6211 10.0056 19.4225 10.1033 20.2319 10.836C20.9685 11.5117 21.5027 12.3421 22.0127 13.1888C22.8707 14.6135 23.7125 16.0463 24.5462 17.4873C24.6676 17.6908 24.7891 17.7641 25.0238 17.7641C26.6589 17.756 28.2858 17.756 29.9209 17.756C30.4632 17.756 30.6251 17.9188 30.6251 18.4561C30.6332 19.3761 30.6332 20.3041 30.6251 21.2241C30.6251 21.8021 30.4794 21.9568 29.9047 21.9568C28.7715 21.9649 27.6221 21.9568 26.4727 21.9568Z" fill="white"/>
<path d="M29.7023 36.0002C26.2218 36.0002 23.3887 33.1752 23.3968 29.7234C23.413 26.3041 26.2703 23.4629 29.7023 23.471C33.1587 23.471 36.0079 26.3286 35.9998 29.7723C35.9998 33.2078 33.1667 36.0002 29.7023 36.0002ZM33.021 29.7478C33.0291 27.9242 31.5802 26.4833 29.7185 26.4751C27.8811 26.467 26.416 27.9079 26.3917 29.7397C26.3675 31.5389 27.873 33.0531 29.6781 33.0531C31.5074 33.0613 33.013 31.5714 33.021 29.7478Z" fill="white"/>
<path d="M9.49066 36.0002C6.01817 35.9921 3.21751 33.1753 3.2256 29.699C3.2337 26.2879 6.10721 23.4548 9.54732 23.4711C12.9793 23.4873 15.8367 26.3449 15.8367 29.756C15.8205 33.2078 12.9793 36.0084 9.49066 36.0002ZM9.50685 26.4751C7.66942 26.4751 6.22053 27.9242 6.22053 29.7641C6.22053 31.5715 7.68561 33.045 9.48257 33.0531C11.32 33.0613 12.8498 31.547 12.8498 29.7234C12.8417 27.9161 11.3605 26.4751 9.50685 26.4751Z" fill="white"/>
<path d="M24.441 2.94729C26.8127 2.93915 28.7877 4.90116 28.7958 7.27022C28.8039 9.66371 26.845 11.6257 24.441 11.642C22.0289 11.6583 20.0619 9.7207 20.0619 7.31093C20.0538 4.86859 21.9722 2.95543 24.441 2.94729Z" fill="white"/>
<path d="M6.82738 11.9839C6.64121 11.9676 6.47932 11.878 6.33362 11.7396C5.90462 11.3082 5.46752 10.8848 5.03852 10.4533C4.72284 10.1277 4.72284 9.77763 5.03852 9.45199C5.32182 9.15891 5.60513 8.86583 5.90462 8.59717C6.09079 8.42621 6.12317 8.31223 5.91271 8.13313C5.59703 7.85633 5.30563 7.55511 5.02233 7.25389C4.73093 6.94452 4.73093 6.59445 5.03042 6.28509C5.46752 5.83733 5.90462 5.39771 6.3579 4.97437C6.68977 4.65687 6.98117 4.66501 7.31304 4.98251C7.61253 5.25117 7.90393 5.53611 8.17914 5.83733C8.36531 6.049 8.49482 6.06528 8.68909 5.84547C8.9562 5.54425 9.2557 5.26745 9.54709 4.98251C9.89515 4.65687 10.1946 4.65687 10.5427 4.98251C10.9798 5.40585 11.4088 5.82919 11.8378 6.26881C12.1616 6.6026 12.1616 6.92824 11.8378 7.26203C11.5545 7.55511 11.2712 7.84819 10.9717 8.11684C10.7855 8.28781 10.7451 8.40178 10.9555 8.58089C11.2631 8.84954 11.5383 9.14262 11.8216 9.4357C12.1616 9.78577 12.1616 10.1114 11.8135 10.4615C11.4007 10.8848 10.9798 11.3082 10.5508 11.7234C10.1946 12.0653 9.88706 12.0653 9.5309 11.7234C9.23951 11.4466 8.94811 11.1616 8.6729 10.8604C8.51101 10.6813 8.40578 10.6569 8.22771 10.8523C7.96059 11.1535 7.65301 11.4303 7.3697 11.7152C7.21591 11.8699 7.04593 11.9757 6.82738 11.9839Z" fill="white"/>
<path d="M63.92 9.248V26H60.56V15.104L56.072 26H53.528L49.016 15.104V26H45.656V9.248H49.472L54.8 21.704L60.128 9.248H63.92ZM73.1459 26.216C71.8659 26.216 70.7139 25.936 69.6899 25.376C68.6659 24.8 67.8579 23.992 67.2659 22.952C66.6899 21.912 66.4019 20.712 66.4019 19.352C66.4019 17.992 66.6979 16.792 67.2899 15.752C67.8979 14.712 68.7219 13.912 69.7619 13.352C70.8019 12.776 71.9619 12.488 73.2419 12.488C74.5219 12.488 75.6819 12.776 76.7219 13.352C77.7619 13.912 78.5779 14.712 79.1699 15.752C79.7779 16.792 80.0819 17.992 80.0819 19.352C80.0819 20.712 79.7699 21.912 79.1459 22.952C78.5379 23.992 77.7059 24.8 76.6499 25.376C75.6099 25.936 74.4419 26.216 73.1459 26.216ZM73.1459 23.288C73.7539 23.288 74.3219 23.144 74.8499 22.856C75.3939 22.552 75.8259 22.104 76.1459 21.512C76.4659 20.92 76.6259 20.2 76.6259 19.352C76.6259 18.088 76.2899 17.12 75.6179 16.448C74.9619 15.76 74.1539 15.416 73.1939 15.416C72.2339 15.416 71.4259 15.76 70.7699 16.448C70.1299 17.12 69.8099 18.088 69.8099 19.352C69.8099 20.616 70.1219 21.592 70.7459 22.28C71.3859 22.952 72.1859 23.288 73.1459 23.288ZM85.9066 14.648C86.3386 14.008 86.9306 13.488 87.6826 13.088C88.4506 12.688 89.3226 12.488 90.2986 12.488C91.4346 12.488 92.4586 12.768 93.3706 13.328C94.2986 13.888 95.0266 14.688 95.5546 15.728C96.0986 16.752 96.3706 17.944 96.3706 19.304C96.3706 20.664 96.0986 21.872 95.5546 22.928C95.0266 23.968 94.2986 24.776 93.3706 25.352C92.4586 25.928 91.4346 26.216 90.2986 26.216C89.3066 26.216 88.4346 26.024 87.6826 25.64C86.9466 25.24 86.3546 24.728 85.9066 24.104V26H82.5466V8.24H85.9066V14.648ZM92.9386 19.304C92.9386 18.504 92.7706 17.816 92.4346 17.24C92.1146 16.648 91.6826 16.2 91.1386 15.896C90.6106 15.592 90.0346 15.44 89.4106 15.44C88.8026 15.44 88.2266 15.6 87.6826 15.92C87.1546 16.224 86.7226 16.672 86.3866 17.264C86.0666 17.856 85.9066 18.552 85.9066 19.352C85.9066 20.152 86.0666 20.848 86.3866 21.44C86.7226 22.032 87.1546 22.488 87.6826 22.808C88.2266 23.112 88.8026 23.264 89.4106 23.264C90.0346 23.264 90.6106 23.104 91.1386 22.784C91.6826 22.464 92.1146 22.008 92.4346 21.416C92.7706 20.824 92.9386 20.12 92.9386 19.304ZM100.516 11.12C99.9243 11.12 99.4283 10.936 99.0283 10.568C98.6443 10.184 98.4523 9.712 98.4523 9.152C98.4523 8.592 98.6443 8.128 99.0283 7.76C99.4283 7.376 99.9243 7.184 100.516 7.184C101.108 7.184 101.596 7.376 101.98 7.76C102.38 8.128 102.58 8.592 102.58 9.152C102.58 9.712 102.38 10.184 101.98 10.568C101.596 10.936 101.108 11.12 100.516 11.12ZM102.172 12.704V26H98.8123V12.704H102.172ZM108.852 8.24V26H105.492V8.24H108.852ZM124.532 19.064C124.532 19.544 124.5 19.976 124.436 20.36H114.716C114.796 21.32 115.132 22.072 115.724 22.616C116.316 23.16 117.044 23.432 117.908 23.432C119.156 23.432 120.044 22.896 120.572 21.824H124.196C123.812 23.104 123.076 24.16 121.988 24.992C120.9 25.808 119.564 26.216 117.98 26.216C116.7 26.216 115.548 25.936 114.524 25.376C113.516 24.8 112.724 23.992 112.148 22.952C111.588 21.912 111.308 20.712 111.308 19.352C111.308 17.976 111.588 16.768 112.148 15.728C112.708 14.688 113.492 13.888 114.5 13.328C115.508 12.768 116.668 12.488 117.98 12.488C119.244 12.488 120.372 12.76 121.364 13.304C122.372 13.848 123.148 14.624 123.692 15.632C124.252 16.624 124.532 17.768 124.532 19.064ZM121.052 18.104C121.036 17.24 120.724 16.552 120.116 16.04C119.508 15.512 118.764 15.248 117.884 15.248C117.052 15.248 116.348 15.504 115.772 16.016C115.212 16.512 114.868 17.208 114.74 18.104H121.052ZM136.063 23.336H141.583V26H132.703V9.248H136.063V23.336ZM142.854 19.304C142.854 17.96 143.118 16.768 143.646 15.728C144.191 14.688 144.919 13.888 145.831 13.328C146.759 12.768 147.791 12.488 148.927 12.488C149.919 12.488 150.783 12.688 151.519 13.088C152.271 13.488 152.871 13.992 153.319 14.6V12.704H156.703V26H153.319V24.056C152.887 24.68 152.287 25.2 151.519 25.616C150.767 26.016 149.895 26.216 148.903 26.216C147.783 26.216 146.759 25.928 145.831 25.352C144.919 24.776 144.191 23.968 143.646 22.928C143.118 21.872 142.854 20.664 142.854 19.304ZM153.319 19.352C153.319 18.536 153.159 17.84 152.839 17.264C152.519 16.672 152.087 16.224 151.543 15.92C150.999 15.6 150.415 15.44 149.791 15.44C149.167 15.44 148.591 15.592 148.062 15.896C147.535 16.2 147.103 16.648 146.767 17.24C146.447 17.816 146.287 18.504 146.287 19.304C146.287 20.104 146.447 20.808 146.767 21.416C147.103 22.008 147.535 22.464 148.062 22.784C148.607 23.104 149.183 23.264 149.791 23.264C150.415 23.264 150.999 23.112 151.543 22.808C152.087 22.488 152.519 22.04 152.839 21.464C153.159 20.872 153.319 20.168 153.319 19.352ZM163.344 14.648C163.776 14.008 164.368 13.488 165.12 13.088C165.888 12.688 166.76 12.488 167.736 12.488C168.872 12.488 169.896 12.768 170.808 13.328C171.736 13.888 172.464 14.688 172.992 15.728C173.536 16.752 173.808 17.944 173.808 19.304C173.808 20.664 173.536 21.872 172.992 22.928C172.464 23.968 171.736 24.776 170.808 25.352C169.896 25.928 168.872 26.216 167.736 26.216C166.744 26.216 165.872 26.024 165.12 25.64C164.384 25.24 163.792 24.728 163.344 24.104V26H159.984V8.24H163.344V14.648ZM170.376 19.304C170.376 18.504 170.208 17.816 169.872 17.24C169.552 16.648 169.12 16.2 168.576 15.896C168.048 15.592 167.472 15.44 166.848 15.44C166.24 15.44 165.664 15.6 165.12 15.92C164.592 16.224 164.16 16.672 163.824 17.264C163.504 17.856 163.344 18.552 163.344 19.352C163.344 20.152 163.504 20.848 163.824 21.44C164.16 22.032 164.592 22.488 165.12 22.808C165.664 23.112 166.24 23.264 166.848 23.264C167.472 23.264 168.048 23.104 168.576 22.784C169.12 22.464 169.552 22.008 169.872 21.416C170.208 20.824 170.376 20.12 170.376 19.304ZM188.281 17.624L193.369 26H191.497L187.225 18.992L183.169 26H181.297L186.361 17.552L181.297 9.224H183.169L187.417 16.208L191.521 9.224H193.393L188.281 17.624ZM197.928 15.776C198.344 14.896 199 14.168 199.896 13.592C200.808 13 201.888 12.704 203.136 12.704C204.32 12.704 205.384 12.984 206.328 13.544C207.288 14.088 208.032 14.872 208.56 15.896C209.104 16.904 209.376 18.08 209.376 19.424C209.376 20.768 209.104 21.952 208.56 22.976C208.032 24 207.288 24.792 206.328 25.352C205.384 25.912 204.32 26.192 203.136 26.192C201.904 26.192 200.832 25.904 199.92 25.328C199.008 24.736 198.344 24 197.928 23.12V32.192H196.272V12.896H197.928V15.776ZM207.672 19.424C207.672 18.336 207.456 17.4 207.024 16.616C206.608 15.816 206.032 15.208 205.296 14.792C204.56 14.376 203.728 14.168 202.8 14.168C201.904 14.168 201.08 14.384 200.328 14.816C199.592 15.248 199.008 15.864 198.576 16.664C198.144 17.464 197.928 18.392 197.928 19.448C197.928 20.504 198.144 21.432 198.576 22.232C199.008 23.032 199.592 23.648 200.328 24.08C201.08 24.512 201.904 24.728 202.8 24.728C203.728 24.728 204.56 24.52 205.296 24.104C206.032 23.672 206.608 23.056 207.024 22.256C207.456 21.44 207.672 20.496 207.672 19.424ZM214.147 15.224C214.515 14.408 215.075 13.776 215.827 13.328C216.595 12.88 217.531 12.656 218.635 12.656V14.408H218.179C216.963 14.408 215.987 14.736 215.251 15.392C214.515 16.048 214.147 17.144 214.147 18.68V26H212.467V12.896H214.147V15.224ZM233.018 18.776C233.018 19.352 233.002 19.792 232.97 20.096H222.098C222.146 21.088 222.386 21.936 222.818 22.64C223.25 23.344 223.818 23.88 224.522 24.248C225.226 24.6 225.994 24.776 226.826 24.776C227.914 24.776 228.826 24.512 229.562 23.984C230.314 23.456 230.81 22.744 231.05 21.848H232.826C232.506 23.128 231.818 24.176 230.762 24.992C229.722 25.792 228.41 26.192 226.826 26.192C225.594 26.192 224.49 25.92 223.514 25.376C222.538 24.816 221.77 24.032 221.21 23.024C220.666 22 220.394 20.808 220.394 19.448C220.394 18.088 220.666 16.896 221.21 15.872C221.754 14.848 222.514 14.064 223.49 13.52C224.466 12.976 225.578 12.704 226.826 12.704C228.074 12.704 229.162 12.976 230.09 13.52C231.034 14.064 231.754 14.8 232.25 15.728C232.762 16.64 233.018 17.656 233.018 18.776ZM231.314 18.728C231.33 17.752 231.13 16.92 230.714 16.232C230.314 15.544 229.762 15.024 229.058 14.672C228.354 14.32 227.586 14.144 226.754 14.144C225.506 14.144 224.442 14.544 223.562 15.344C222.682 16.144 222.194 17.272 222.098 18.728H231.314ZM240.604 26.192C239.1 26.192 237.868 25.848 236.908 25.16C235.964 24.456 235.436 23.504 235.324 22.304H237.052C237.132 23.04 237.476 23.64 238.084 24.104C238.708 24.552 239.54 24.776 240.58 24.776C241.492 24.776 242.204 24.56 242.716 24.128C243.244 23.696 243.508 23.16 243.508 22.52C243.508 22.072 243.364 21.704 243.076 21.416C242.788 21.128 242.42 20.904 241.972 20.744C241.54 20.568 240.948 20.384 240.196 20.192C239.22 19.936 238.428 19.68 237.82 19.424C237.212 19.168 236.692 18.792 236.26 18.296C235.844 17.784 235.636 17.104 235.636 16.256C235.636 15.616 235.828 15.024 236.212 14.48C236.596 13.936 237.14 13.504 237.844 13.184C238.548 12.864 239.348 12.704 240.244 12.704C241.652 12.704 242.788 13.064 243.652 13.784C244.516 14.488 244.98 15.464 245.044 16.712H243.364C243.316 15.944 243.012 15.328 242.452 14.864C241.908 14.384 241.156 14.144 240.196 14.144C239.348 14.144 238.66 14.344 238.132 14.744C237.604 15.144 237.34 15.64 237.34 16.232C237.34 16.744 237.492 17.168 237.796 17.504C238.116 17.824 238.508 18.08 238.972 18.272C239.436 18.448 240.06 18.648 240.844 18.872C241.788 19.128 242.54 19.376 243.1 19.616C243.66 19.856 244.14 20.208 244.54 20.672C244.94 21.136 245.148 21.752 245.164 22.52C245.164 23.224 244.972 23.856 244.588 24.416C244.204 24.96 243.668 25.392 242.98 25.712C242.292 26.032 241.5 26.192 240.604 26.192ZM252.838 26.192C251.334 26.192 250.102 25.848 249.142 25.16C248.198 24.456 247.67 23.504 247.558 22.304H249.286C249.366 23.04 249.71 23.64 250.318 24.104C250.942 24.552 251.774 24.776 252.814 24.776C253.726 24.776 254.438 24.56 254.95 24.128C255.478 23.696 255.742 23.16 255.742 22.52C255.742 22.072 255.598 21.704 255.31 21.416C255.022 21.128 254.654 20.904 254.206 20.744C253.774 20.568 253.182 20.384 252.43 20.192C251.454 19.936 250.662 19.68 250.054 19.424C249.446 19.168 248.926 18.792 248.494 18.296C248.078 17.784 247.87 17.104 247.87 16.256C247.87 15.616 248.062 15.024 248.446 14.48C248.83 13.936 249.374 13.504 250.078 13.184C250.782 12.864 251.582 12.704 252.478 12.704C253.886 12.704 255.022 13.064 255.886 13.784C256.75 14.488 257.214 15.464 257.278 16.712H255.598C255.55 15.944 255.246 15.328 254.686 14.864C254.142 14.384 253.39 14.144 252.43 14.144C251.582 14.144 250.894 14.344 250.366 14.744C249.838 15.144 249.574 15.64 249.574 16.232C249.574 16.744 249.726 17.168 250.03 17.504C250.35 17.824 250.742 18.08 251.206 18.272C251.67 18.448 252.294 18.648 253.078 18.872C254.022 19.128 254.774 19.376 255.334 19.616C255.894 19.856 256.374 20.208 256.774 20.672C257.174 21.136 257.382 21.752 257.398 22.52C257.398 23.224 257.206 23.856 256.822 24.416C256.438 24.96 255.902 25.392 255.214 25.712C254.526 26.032 253.734 26.192 252.838 26.192Z" fill="white"/>
</svg>
