<svg width="85" height="27" viewBox="0 0 85 27" fill="none" xmlns="http://www.w3.org/2000/svg">
<path fill-rule="evenodd" clip-rule="evenodd" d="M15.3334 8.51118C14.3467 7.8519 13.1867 7.5 12 7.5V1.5C14.3734 1.5 16.6934 2.20379 18.6668 3.52237C20.6402 4.84094 22.1783 6.71509 23.0866 8.90778C23.9948 11.1005 24.2324 13.5133 23.7694 15.8411C23.3064 18.1688 22.1635 20.3071 20.4853 21.9853C18.8071 23.6635 16.6688 24.8064 14.3411 25.2694C12.0133 25.7324 9.60048 25.4948 7.40778 24.5866C5.21508 23.6783 3.34094 22.1402 2.02237 20.1668C0.703788 18.1934 0 15.8734 0 13.5H6C6 14.6867 6.3519 15.8467 7.01118 16.8334C7.67046 17.8201 8.60754 18.5891 9.70392 19.0433C10.8002 19.4974 12.0067 19.6162 13.1705 19.3847C14.3344 19.1532 15.4035 18.5818 16.2427 17.7427C17.0818 16.9035 17.6532 15.8344 17.8847 14.6705C18.1162 13.5067 17.9974 12.3002 17.5433 11.2039C17.0891 10.1075 16.3201 9.17046 15.3334 8.51118Z" fill="white"/>
<path fill-rule="evenodd" clip-rule="evenodd" d="M6 1.5C6 2.28793 5.84481 3.06815 5.54328 3.79611C5.24175 4.52406 4.79979 5.18549 4.24264 5.74264C3.68549 6.2998 3.02406 6.74175 2.2961 7.04328C1.56814 7.34481 0.787929 7.5 2.62266e-07 7.5L0 13.5C1.57586 13.5 3.13629 13.1896 4.5922 12.5866C6.04812 11.9835 7.371 11.0996 8.48526 9.98526C9.59958 8.871 10.4835 7.54812 11.0866 6.0922C11.6896 4.63629 12 3.07586 12 1.5L6 1.5Z" fill="white"/>
<path d="M44.592 21H40.728V7.656H36.12V4.2H49.224V7.656H44.592V21ZM54.6879 21H50.9679V4.2H55.4799L59.9439 16.128L64.4079 4.2H68.8239V21H65.1039V10.104L61.3839 21H58.5039L54.6879 10.032V21ZM77.6051 21.48C73.4771 21.48 71.0051 19.272 71.0051 15.504H74.8931C74.8931 17.328 75.9251 18.408 77.6291 18.408C79.0691 18.408 79.8851 17.736 79.8851 16.56C79.8851 15.528 79.3571 15 77.8451 14.4L74.8211 13.224C72.5651 12.384 71.4131 10.824 71.4131 8.64C71.4131 5.688 73.7411 3.72 77.3891 3.72C81.0851 3.72 83.5331 5.808 83.5331 9.048H79.6451C79.6451 7.488 78.8291 6.624 77.3171 6.624C76.0451 6.624 75.3011 7.272 75.3011 8.28C75.3011 9.216 75.9491 9.792 77.6051 10.464L80.3891 11.568C82.7171 12.48 83.7731 14.04 83.7731 16.296C83.7731 19.44 81.3251 21.48 77.6051 21.48Z" fill="white"/>
</svg>
