<svg width="14" height="14" viewBox="0 0 14 14" fill="none" xmlns="http://www.w3.org/2000/svg">
<path d="M8.74967 1.16663H3.49967C3.19026 1.16663 2.89351 1.28954 2.67472 1.50833C2.45592 1.72713 2.33301 2.02387 2.33301 2.33329V11.6666C2.33301 11.976 2.45592 12.2728 2.67472 12.4916C2.89351 12.7104 3.19026 12.8333 3.49967 12.8333H10.4997C10.8091 12.8333 11.1058 12.7104 11.3246 12.4916C11.5434 12.2728 11.6663 11.976 11.6663 11.6666V4.08329L8.74967 1.16663Z" stroke="#0C382B" strokeWidth="1.07527" strokeLinecap="round" strokeLinejoin="round"/>
<path d="M8.16699 1.16663V3.49996C8.16699 3.80938 8.28991 4.10612 8.5087 4.32492C8.72749 4.54371 9.02424 4.66663 9.33366 4.66663H11.667" stroke="#0C382B" strokeWidth="1.07527" strokeLinecap="round" strokeLinejoin="round"/>
<path d="M5.83366 5.25H4.66699" stroke="#0C382B" strokeWidth="1.07527" strokeLinecap="round" strokeLinejoin="round"/>
<path d="M9.33366 7.58325H4.66699" stroke="#0C382B" strokeWidth="1.07527" strokeLinecap="round" strokeLinejoin="round"/>
<path d="M9.33366 9.91663H4.66699" stroke="#0C382B" strokeWidth="1.07527" strokeLinecap="round" strokeLinejoin="round"/>
</svg>
